# xmcd
# 
# Track frame offsets:
#     150
#     20030
#     37220
#     62562
#     84197
#     101452
#     115822
#     131367
#     156742
#     172967
#     184545
#     203977
#     246490
# 
# Disc length: 3575
# 
# Revision: 5
# Processed by: cddbd v1.5.2PL0 Copyright (c) Steve Scherf et al.
# Submitted via: BonkEnc v1.0.8
# 
DISCID=b00df50d
DTITLE=G. Love and Special Sauce - Yeah, It's That Easy
DYEAR=1997
DGENRE=Blues
TTITLE0=Stepping Stones
TTITLE1=I-76
TTITLE2=Lay Down the Law
TTITLE3=Slipped Away (The Ballad of Lauretha Vaird)
TTITLE4=You Shall See
TTITLE5=Take You There
TTITLE6=Willow Tree
TTITLE7=Yeah, It's That Easy
TTITLE8=Recipe
TTITLE9=200 Years
TTITLE10=Making Amends
TTITLE11=Pull The Wool
TTITLE12=When We Meet Again
EXTD=YEAR: 1997
EXTT0=
EXTT1=
EXTT2=
EXTT3=
EXTT4=
EXTT5=
EXTT6=
EXTT7=
EXTT8=
EXTT9=
EXTT10=
EXTT11=
EXTT12=
PLAYORDER=
